<svg xmlns="http://www.w3.org/2000/svg" xmlns:xlink="http://www.w3.org/1999/xlink" width="3341.123" height="5123.525" viewBox="0 0 3341.123 5123.525">
  <defs>
    <linearGradient id="linear-gradient" x1="-0.027" y1="0.991" x2="0.945" y2="0.996" gradientUnits="objectBoundingBox">
      <stop offset="0" stop-color="#2b2a29"/>
      <stop offset="1" stop-color="#4d4d4d"/>
    </linearGradient>
    <linearGradient id="linear-gradient-2" x1="0.991" y1="0.988" x2="0.057" y2="1" xlink:href="#linear-gradient"/>
    <linearGradient id="linear-gradient-3" x1="-0.012" y1="1" x2="0.935" y2="1" xlink:href="#linear-gradient"/>
    <linearGradient id="linear-gradient-4" x1="0.035" y1="1" x2="0.905" y2="1" gradientUnits="objectBoundingBox">
      <stop offset="0" stop-color="#4d4d4d"/>
      <stop offset="1" stop-color="#2b2a29"/>
    </linearGradient>
    <radialGradient id="radial-gradient" cx="0.5" cy="0.5" r="3.458" gradientTransform="translate(0.4 0.289) scale(0.2 0.422)" gradientUnits="objectBoundingBox">
      <stop offset="0"/>
      <stop offset="0.094"/>
      <stop offset="0.151" stop-opacity="0.49"/>
      <stop offset="0.227" stop-opacity="0.439"/>
      <stop offset="1" stop-opacity="0"/>
    </radialGradient>
    <linearGradient id="linear-gradient-5" x1="3.003" y1="1.076" x2="3.003" y2="0.255" gradientUnits="objectBoundingBox">
      <stop offset="0" stop-color="#d92114"/>
      <stop offset="1" stop-color="#790707"/>
    </linearGradient>
    <linearGradient id="linear-gradient-6" x1="0.815" y1="0.228" x2="0.168" y2="-0.646" gradientUnits="objectBoundingBox">
      <stop offset="0" stop-color="#6fddff"/>
      <stop offset="1" stop-color="#005990"/>
    </linearGradient>
  </defs>
  <g id="Group_1449" data-name="Group 1449" transform="translate(-17379.549 21174.711)">
    <g id="Group_1444" data-name="Group 1444">
      <g id="Group_1443" data-name="Group 1443">
        <rect id="Rectangle_1530" data-name="Rectangle 1530" width="2487" height="5123" rx="1243.5" transform="translate(17399 -21174.186)" fill="#acacac"/>
        <path id="Path_2622" data-name="Path 2622" d="M612.323-.629h711.993V2560.762H129V482.695C129,216.9,346.533-1,612.695-1Z" transform="translate(17318.48 -21173.711)" fill-rule="evenodd" fill="url(#linear-gradient)"/>
        <path id="Path_2623" data-name="Path 2623" d="M3349,0h710.508c265.419,0,482.581,217.161,482.581,482.581v2069.53H3349Z" transform="translate(15293.797 -21174.34)" fill-rule="evenodd" fill="url(#linear-gradient-2)"/>
        <path id="Path_2624" data-name="Path 2624" d="M128,6899.371H1330.369V9460.762H611.695C345.533,9460.762,128,9243.23,128,8977.068v-2077.7Z" transform="translate(17319.109 -25512.32)" fill-rule="evenodd" fill="url(#linear-gradient-3)"/>
        <path id="Path_2625" data-name="Path 2625" d="M3367,6875H4553.407V8963.462c0,265.419-217.162,482.581-482.581,482.581H3367Z" transform="translate(15282.479 -25497.229)" fill-rule="evenodd" fill="url(#linear-gradient-4)"/>
        <rect id="Rectangle_1531" data-name="Rectangle 1531" width="2325" height="4997" rx="1162.5" transform="translate(17479 -21111.186)" fill="#1b1b1b"/>
        <rect id="Rectangle_1532" data-name="Rectangle 1532" width="2229" height="4020" transform="translate(17527 -20621.186)" fill="#fefefe"/>
        <rect id="Rectangle_1533" data-name="Rectangle 1533" width="505" height="41" rx="20.5" transform="translate(18396 -20945.186)"/>
        <rect id="Rectangle_1534" data-name="Rectangle 1534" width="506" height="40" rx="20" transform="translate(18396 -20954.186)" fill="#434242"/>
        <path id="Path_2626" data-name="Path 2626" d="M-41.379,2420.371h23.758v336.322H-41.379A12.517,12.517,0,0,1-54,2744.072v-311.45A12.517,12.517,0,0,1-41.379,2420Z" transform="translate(17433.549 -22695.996)" fill="#727271" fill-rule="evenodd"/>
        <ellipse id="Ellipse_385" data-name="Ellipse 385" cx="118.5" cy="117.5" rx="118.5" ry="117.5" transform="translate(18531 -16476.188)" fill="#acacac"/>
        <circle id="Ellipse_386" data-name="Ellipse 386" cx="114.5" cy="114.5" r="114.5" transform="translate(18535 -16473.188)" fill="#2b2a29"/>
        <rect id="Rectangle_1535" data-name="Rectangle 1535" width="53" height="54" transform="translate(18623 -16386.188)" fill="#fefefe"/>
        <rect id="Rectangle_1536" data-name="Rectangle 1536" width="44" height="43" transform="translate(18628 -16381.187)" fill="#2b2a29"/>
        <g id="Group_1442" data-name="Group 1442" transform="translate(-264.228 -936.703)">
          <g id="Group_1441" data-name="Group 1441" transform="translate(17799.707 -19705.867)">
            <g id="Group_1337" data-name="Group 1337" transform="translate(0 0)">
              <path id="Path_2628" data-name="Path 2628" d="M2275.174,342.468,89.441,358.189l.008,4047.049L2275.173,4389.5Z" transform="translate(-89.441 -342.468)" fill="#edeee2"/>
            </g>
            <g id="Group_1338" data-name="Group 1338" transform="translate(0 222.735)">
              <path id="Path_2629" data-name="Path 2629" d="M970.237,383.182l-880.8,6.354.008,2402.425,891.187-794.932Z" transform="translate(-89.441 -383.182)" fill="#cdd0aa"/>
            </g>
            <g id="Group_1339" data-name="Group 1339" transform="translate(0 2971.214)">
              <path id="Path_2630" data-name="Path 2630" d="M835.743,885.577l-746.3,451.016.008,461.253L1680.368,1786.4Z" transform="translate(-89.441 -885.577)" fill="#cdd0aa"/>
            </g>
            <g id="Group_1340" data-name="Group 1340" transform="translate(0 213.325)">
              <path id="Path_2631" data-name="Path 2631" d="M2275.174,381.462l-1234.4,8.9,9.074,1642.125L89.441,2896.01l.008,608.446L824.234,3060.4q10.022-6.462,24.143-4.247l930.65,983.292,496.147-3.573V3815.888l-388.894-490.86L2061.5,1946.8q6.366-14.512,27.907-20.137l185.769-21.244Z" transform="translate(-89.441 -381.462)" fill="#cdd0aa"/>
            </g>
            <g id="Group_1341" data-name="Group 1341" transform="translate(1868.34 1812.298)">
              <path id="Path_2632" data-name="Path 2632" d="M767.922,673.739l-75.328,8.614-75.357,8.617L450.559,1998.945l317.393,396.821V673.739Z" transform="translate(-450.559 -673.739)" fill="#cdd0aa"/>
            </g>
            <g id="Group_1342" data-name="Group 1342" transform="translate(1224.779 734.772)">
              <path id="Path_2633" data-name="Path 2633" d="M722.9,476.777q-169.715,5.753-281.66,125.751T326.17,902.039l4.016,57.29q27.043,173.026,153.5,275.976,105.86,85.511,242.267,85.511a468.615,468.615,0,0,0,56.573-3.516q163.634-28.591,260.99-162.312a428.468,428.468,0,0,0,51.236-94.064l16.786-52.251a445.653,445.653,0,0,0,13.546-112.391q-5.442-179.456-118.923-297.825T722.9,476.777Z" transform="translate(-326.17 -476.777)" fill="#a2a57b"/>
            </g>
            <g id="Group_1343" data-name="Group 1343" transform="translate(1124.634 628.152)">
              <path id="Path_2634" data-name="Path 2634" d="M810.611,531.884v.016q188.89,4.834,310.345,133.923,122.985,129.082,128.862,324.19-.556,128.876-58.058,233.253l-31.019,49.282a452.859,452.859,0,0,1-78.234,83.858,431.478,431.478,0,0,1-96.382,60.56q-79.611,37.13-171.448,37.13a487.212,487.212,0,0,1-60-3.8,414.941,414.941,0,0,1-110.115-31.743l-50.206-26.495a441.783,441.783,0,0,1-88.126-71.54,460.593,460.593,0,0,1-68.3-92.681L412.5,1174.917A478.6,478.6,0,0,1,381.7,1058.609q-15.929-128.8,28.78-242.107A468.05,468.05,0,0,1,466.432,713.77a452.743,452.743,0,0,1,78.233-83.857l46.18-33.468Q688.775,534.227,810.611,531.884Zm3.046-74.6-3.527.013Q594.821,464.613,452.8,616.836t-145.987,380q6.827,226.647,149.7,376.6,141.111,149.953,360.519,155.6,215.3-7.313,357.321-159.543t145.995-379.97q-6.827-226.673-149.709-376.638T813.657,457.289Z" transform="translate(-306.813 -457.289)" fill="#ffc107"/>
            </g>
            <g id="Group_1344" data-name="Group 1344" transform="translate(1548.103 217.409)">
              <path id="Path_2635" data-name="Path 2635" d="M459.545,382.209v.072l-70.883.439,41.517,412.03c.187-.019.373-.035.559-.045h.024c-.194.018-.388.035-.581.051l2.412,23.965c1.93,19.139,17.227,33.346,35.027,33.346h.241a32.132,32.132,0,0,0,3.537-.218c19.37-2.176,33.4-20.55,31.335-41.027l-1.662-17h-.019a.038.038,0,0,0-.034.017v-.022Z" transform="translate(-388.663 -382.209)" fill="#ffc107"/>
            </g>
            <g id="Group_1345" data-name="Group 1345" transform="translate(1108.834 1624.855)">
              <path id="Path_2636" data-name="Path 2636" d="M631.083,639.476h-.245c-13.094.095-24.473,7.724-30.43,18.992l-.055-.021a37.276,37.276,0,0,0-2.875,7.008l-292.054,969.4a39.072,39.072,0,0,0,4.648,32.61l800.352,1216.864,85.51-.639-818.03-1243.71L664.684,688.1c.124-.419.244-.847.41-1.271a.071.071,0,0,0-.023-.005.031.031,0,0,0-.024.011v-.022a39.285,39.285,0,0,0,1.3-10.3C666.214,656.006,650.451,639.476,631.083,639.476Z" transform="translate(-303.759 -639.476)" fill="#ffc107"/>
            </g>
            <g id="Group_1346" data-name="Group 1346" transform="translate(0 1533.666)">
              <path id="Path_2637" data-name="Path 2637" d="M1375.213,622.808l-1.714.045q-16.961,1.008-27.582,16.452L682.682,1682.749,89.441,2019.642l.008,84.653,643.334-367.538,672.6-1057.379Q1422.437,634.251,1375.213,622.808Z" transform="translate(-89.441 -622.808)" fill="#ffc107"/>
            </g>
            <g id="Group_1347" data-name="Group 1347" transform="translate(2076.565 1303.415)">
              <path id="Path_2638" data-name="Path 2638" d="M526.049,580.72h-.24a34.034,34.034,0,0,0-20.458,7.124A36.768,36.768,0,0,0,493.9,602.767a39.11,39.11,0,0,0-2.6,9.114l-.461,4.762a39.168,39.168,0,0,0,.848,9.626,38.217,38.217,0,0,0,9.064,17.691q8.8,9.11,19.359,10.81l79.871,7.456V587.364Z" transform="translate(-490.805 -580.72)" fill="#ffc107"/>
            </g>
            <g id="Group_1348" data-name="Group 1348" transform="translate(2022.708 293.512)">
              <path id="Path_2639" data-name="Path 2639" d="M643.42,396.119l-73.987,4.041L480.4,405.029l7,143.2,156.024-8.51Z" transform="translate(-480.396 -396.119)" fill="rgba(255,255,255,0.55)"/>
            </g>
            <g id="Group_1349" data-name="Group 1349" transform="translate(1714.055 308.908)">
              <path id="Path_2640" data-name="Path 2640" d="M610.679,398.934l-94.97,5.185-94.97,5.191,6.749,138.174,189.946-10.377Z" transform="translate(-420.738 -398.934)" fill="rgba(255,255,255,0.55)"/>
            </g>
            <g id="Group_1350" data-name="Group 1350" transform="translate(1000.637 348.369)">
              <path id="Path_2641" data-name="Path 2641" d="M672.193,406.147l-389.346,2.817,1.527,237.022,389.346-2.8Z" transform="translate(-282.847 -406.147)" fill="rgba(255,255,255,0.55)"/>
            </g>
            <g id="Group_1351" data-name="Group 1351" transform="translate(1693.623 507.875)">
              <path id="Path_2642" data-name="Path 2642" d="M771.657,435.3l-177.434,1.3L416.789,437.86l.561,86.956,354.868-2.557Z" transform="translate(-416.789 -435.303)" fill="rgba(255,255,255,0.55)"/>
            </g>
            <g id="Group_1352" data-name="Group 1352" transform="translate(2100.196 568.084)">
              <path id="Path_2643" data-name="Path 2643" d="M580.909,446.309l-21.433,1.171-64.1,3.509,8.1,165.807,77.436-4.222Z" transform="translate(-495.373 -446.309)" fill="rgba(255,255,255,0.55)"/>
            </g>
            <g id="Group_1353" data-name="Group 1353" transform="translate(529.894 321.14)">
              <path id="Path_2644" data-name="Path 2644" d="M415.761,401.17l-111.943.74-111.958.813,3.325,516.056L419.1,917.17Z" transform="translate(-191.86 -401.17)" fill="rgba(255,255,255,0.55)"/>
            </g>
            <g id="Group_1354" data-name="Group 1354" transform="translate(0 415.047)">
              <path id="Path_2645" data-name="Path 2645" d="M423.6,418.335l-199.526,1.372-134.631.974.008,422,336.879-2.434Z" transform="translate(-89.441 -418.335)" fill="rgba(255,255,255,0.55)"/>
            </g>
            <g id="Group_1355" data-name="Group 1355" transform="translate(2171.997 829.786)">
              <path id="Path_2646" data-name="Path 2646" d="M522.986,494.145l-13.736.944,13.736,223.548Z" transform="translate(-509.251 -494.145)" fill="rgba(255,255,255,0.55)"/>
            </g>
            <g id="Group_1356" data-name="Group 1356" transform="translate(997.308 708.771)">
              <path id="Path_2647" data-name="Path 2647" d="M381.545,472.025l-49.672.429-49.67.292,4.064,630.7,99.342-.716Z" transform="translate(-282.203 -472.025)" fill="rgba(255,255,255,0.55)"/>
            </g>
            <g id="Group_1357" data-name="Group 1357" transform="translate(0 996.464)">
              <path id="Path_2648" data-name="Path 2648" d="M356.805,524.612l-174.073,1.271-93.291.663.008,436.558,270.169-1.949Z" transform="translate(-89.441 -524.612)" fill="rgba(255,255,255,0.55)"/>
            </g>
            <g id="Group_1358" data-name="Group 1358" transform="translate(1014.41 1488.336)">
              <path id="Path_2649" data-name="Path 2649" d="M409.739,614.522l-62.112.519-62.118.382.934,144.984,124.23-.89Z" transform="translate(-285.509 -614.522)" fill="rgba(255,255,255,0.55)"/>
            </g>
            <g id="Group_1359" data-name="Group 1359" transform="translate(512.73 990.075)">
              <path id="Path_2650" data-name="Path 2650" d="M378.718,523.444,188.543,524.82,194,1371.937l190.175-1.372Z" transform="translate(-188.543 -523.444)" fill="rgba(255,255,255,0.55)"/>
            </g>
            <g id="Group_1360" data-name="Group 1360" transform="translate(0 1619.222)">
              <path id="Path_2651" data-name="Path 2651" d="M427.3,638.446,216.154,639.9l-126.713.914.008,498.291,341.062-2.464Z" transform="translate(-89.441 -638.446)" fill="rgba(255,255,255,0.55)"/>
            </g>
            <g id="Group_1361" data-name="Group 1361" transform="translate(1543.88 1880.582)">
              <path id="Path_2652" data-name="Path 2652" d="M638.52,686.22l-125.335.974-125.338.832,2,310.394,250.673-1.8Z" transform="translate(-387.846 -686.22)" fill="rgba(255,255,255,0.55)"/>
            </g>
            <g id="Group_1362" data-name="Group 1362" transform="translate(988.561 2122.438)">
              <path id="Path_2653" data-name="Path 2653" d="M474.58,730.43,280.513,751.743,297.269,922.38l194.07-21.3Z" transform="translate(-280.513 -730.43)" fill="rgba(255,255,255,0.55)"/>
            </g>
            <g id="Group_1363" data-name="Group 1363" transform="translate(499.1 2300.363)">
              <path id="Path_2654" data-name="Path 2654" d="M314.313,762.952l-64.2,3.746-64.2,3.739,8.154,156.51,128.405-7.473Z" transform="translate(-185.908 -762.952)" fill="rgba(255,255,255,0.55)"/>
            </g>
            <g id="Group_1364" data-name="Group 1364" transform="translate(1296.369 2371.645)">
              <path id="Path_2655" data-name="Path 2655" d="M841.331,775.982l-250.648,1.734-250.676,1.813,1.6,248.315,501.349-3.609Z" transform="translate(-340.007 -775.982)" fill="rgba(255,255,255,0.55)"/>
            </g>
            <g id="Group_1365" data-name="Group 1365" transform="translate(753.479 2552.359)">
              <path id="Path_2656" data-name="Path 2656" d="M480.4,809.015l-122.652.819-122.67.889,1.418,220.095,245.34-1.767Z" transform="translate(-235.076 -809.015)" fill="rgba(255,255,255,0.55)"/>
            </g>
            <g id="Group_1366" data-name="Group 1366" transform="translate(2043.456 2129.316)">
              <path id="Path_2657" data-name="Path 2657" d="M626.683,731.687l-142.277.965,4.735,734.506,137.542-.981Z" transform="translate(-484.406 -731.687)" fill="rgba(255,255,255,0.55)"/>
            </g>
            <g id="Group_1367" data-name="Group 1367" transform="translate(1537.197 2739.821)">
              <path id="Path_2658" data-name="Path 2658" d="M559.464,843.281l-86.454.694-86.456.558.913,141.642,172.91-1.242Z" transform="translate(-386.555 -843.281)" fill="rgba(255,255,255,0.55)"/>
            </g>
            <g id="Group_1368" data-name="Group 1368" transform="translate(453.155 2813.807)">
              <path id="Path_2659" data-name="Path 2659" d="M314.008,856.8l-68.49,3.995-68.49,3.991,5.788,111.119,136.98-7.975Z" transform="translate(-177.028 -856.805)" fill="rgba(255,255,255,0.55)"/>
            </g>
            <g id="Group_1369" data-name="Group 1369" transform="translate(908.731 2898.152)">
              <path id="Path_2660" data-name="Path 2660" d="M575.752,872.222l-155.335,7.126-155.334,7.135,4.754,115.745L580.5,987.972Z" transform="translate(-265.083 -872.222)" fill="rgba(255,255,255,0.55)"/>
            </g>
            <g id="Group_1370" data-name="Group 1370" transform="translate(1573.808 3000.306)">
              <path id="Path_2661" data-name="Path 2661" d="M528.92,890.9l-67.643.559-67.646.421.82,127.24,135.289-.97Z" transform="translate(-393.631 -890.895)" fill="rgba(255,255,255,0.55)"/>
            </g>
            <g id="Group_1371" data-name="Group 1371" transform="translate(1221.721 3139.523)">
              <path id="Path_2662" data-name="Path 2662" d="M420.838,916.343l-47.628,2.183-47.631,2.193,4.135,100.724,95.259-4.37Z" transform="translate(-325.578 -916.343)" fill="rgba(255,255,255,0.55)"/>
            </g>
            <g id="Group_1372" data-name="Group 1372" transform="translate(1704.758 3283.099)">
              <path id="Path_2663" data-name="Path 2663" d="M533.7,942.587l-57.378.485-57.381.343.4,62.442,114.758-.827Z" transform="translate(-418.941 -942.587)" fill="rgba(255,255,255,0.55)"/>
            </g>
            <g id="Group_1373" data-name="Group 1373" transform="translate(1354.388 3368.321)">
              <path id="Path_2664" data-name="Path 2664" d="M483.217,958.165l-66,3.028-66,3.034,1.647,40.119,73.33-3.362,58.664-2.695Z" transform="translate(-351.221 -958.165)" fill="rgba(255,255,255,0.55)"/>
            </g>
            <g id="Group_1374" data-name="Group 1374" transform="translate(476.796 3193.993)">
              <path id="Path_2665" data-name="Path 2665" d="M521.14,926.3,181.6,928.758l1.959,304,339.543-2.441Z" transform="translate(-181.597 -926.299)" fill="rgba(255,255,255,0.55)"/>
            </g>
            <g id="Group_1375" data-name="Group 1375" transform="translate(1868.933 3476.559)">
              <path id="Path_2666" data-name="Path 2666" d="M559.982,977.949l-54.641.328-54.668.4.62,96.308,109.337-.782Z" transform="translate(-450.673 -977.949)" fill="rgba(255,255,255,0.55)"/>
            </g>
            <g id="Group_1376" data-name="Group 1376" transform="translate(1518.525 3558.973)">
              <path id="Path_2667" data-name="Path 2667" d="M492.336,993.014l-109.391,5.015,3.23,78.708,109.39-5.015Z" transform="translate(-382.946 -993.014)" fill="rgba(255,255,255,0.55)"/>
            </g>
            <g id="Group_1377" data-name="Group 1377" transform="translate(2019.212 3705.492)">
              <path id="Path_2668" data-name="Path 2668" d="M607.067,1019.8l-63.671.536-63.676.387.5,77.185,127.347-.918Z" transform="translate(-479.72 -1019.796)" fill="rgba(255,255,255,0.55)"/>
            </g>
            <g id="Group_1378" data-name="Group 1378" transform="translate(20.93 3465.956)">
              <path id="Path_2669" data-name="Path 2669" d="M416.744,976.011l-161.625,1.1L93.487,978.275l2.047,317.781,323.269-2.322Z" transform="translate(-93.487 -976.011)" fill="rgba(255,255,255,0.55)"/>
            </g>
            <g id="Group_1379" data-name="Group 1379" transform="translate(535.665 3641.888)">
              <path id="Path_2670" data-name="Path 2670" d="M782.513,1008.17l-294.766,2.124-294.771,2.129.992,153.972,589.538-4.238Z" transform="translate(-192.976 -1008.17)" fill="rgba(255,255,255,0.55)"/>
            </g>
            <g id="Group_1382" data-name="Group 1382" transform="translate(1186.328 3128.757)">
              <path id="Path_2673" data-name="Path 2673" d="M322.163,914.375l-3.425,99,93.62,3.618L415.783,918Q368.97,916.176,322.163,914.375Z" transform="translate(-318.738 -914.375)" fill="#3c464f"/>
            </g>
            <g id="Group_1383" data-name="Group 1383" transform="translate(696.918 3273.379)">
              <path id="Path_2674" data-name="Path 2674" d="M224.143,940.81v61.352l112.757.01V940.811q-28.191.07-56.38.07T224.143,940.81Z" transform="translate(-224.143 -940.81)" fill="#3c464f"/>
            </g>
            <g id="Group_1384" data-name="Group 1384" transform="translate(1023.4 3354.752)">
              <path id="Path_2675" data-name="Path 2675" d="M288.608,955.685l-1.362,39.434,129.722,5.015,1.364-39.429Q353.473,958.19,288.608,955.685Z" transform="translate(-287.247 -955.685)" fill="#3c464f"/>
            </g>
            <g id="Group_1385" data-name="Group 1385" transform="translate(1681.979 3178.73)">
              <path id="Path_2676" data-name="Path 2676" d="M414.539,923.509v298.71l333.617-.005V923.521Z" transform="translate(-414.539 -923.509)" fill="#3c464f"/>
            </g>
            <g id="Group_1386" data-name="Group 1386" transform="translate(542.167 3464.512)">
              <path id="Path_2677" data-name="Path 2677" d="M247.947,975.748l-53.715.064v94.574l107.429-.005V975.753Z" transform="translate(-194.233 -975.748)" fill="#3c464f"/>
            </g>
            <g id="Group_1387" data-name="Group 1387" transform="translate(2147.579 3442.556)">
              <path id="Path_2678" data-name="Path 2678" d="M585.95,971.734l-81.419.033v312.175l81.463.008Z" transform="translate(-504.531 -971.734)" fill="#3c464f"/>
            </g>
            <g id="Group_1399" data-name="Group 1399" transform="translate(352.799 1604.182)">
              <g id="Group_1390" data-name="Group 1390" transform="translate(74.746 91.444)">
                <path id="Path_2680" data-name="Path 2680" d="M172.078,653.237v22.539a40,40,0,0,0,16.943-7.426L173.95,652.412a19.958,19.958,0,0,1-1.871.824Z" transform="translate(-172.078 -652.412)" fill="#323232"/>
              </g>
              <g id="Group_1391" data-name="Group 1391" transform="translate(86.482 79.036)">
                <path id="Path_2681" data-name="Path 2681" d="M174.346,652.127l15.07,15.935a44.907,44.907,0,0,0,7.022-17.917H175.122Q174.777,651.159,174.346,652.127Z" transform="translate(-174.346 -650.145)" fill="#323232"/>
              </g>
              <g id="Group_1392" data-name="Group 1392" transform="translate(86.48 46.373)">
                <path id="Path_2682" data-name="Path 2682" d="M174.346,660.11q.432.965.779,1.979l21.315,0a44.908,44.908,0,0,0-7.023-17.918Z" transform="translate(-174.346 -644.174)" fill="#323232"/>
              </g>
              <g id="Group_1393" data-name="Group 1393" transform="translate(43.857 28.519)">
                <path id="Path_2683" data-name="Path 2683" d="M181.178,664.274a19.514,19.514,0,0,1,1.872-.825V640.91a39.989,39.989,0,0,0-16.943,7.426Z" transform="translate(-166.108 -640.91)" fill="#323232"/>
              </g>
              <g id="Group_1394" data-name="Group 1394" transform="translate(74.746 28.517)">
                <path id="Path_2684" data-name="Path 2684" d="M189.021,648.336a39.969,39.969,0,0,0-16.943-7.426v22.538a19.868,19.868,0,0,1,1.872.824Z" transform="translate(-172.078 -640.91)" fill="#323232"/>
              </g>
              <g id="Group_1395" data-name="Group 1395" transform="translate(26.971 46.369)">
                <path id="Path_2685" data-name="Path 2685" d="M184.937,660.11l-15.071-15.937a44.915,44.915,0,0,0-7.022,17.918h21.317Q184.5,661.076,184.937,660.11Z" transform="translate(-162.844 -644.173)" fill="#323232"/>
              </g>
              <g id="Group_1396" data-name="Group 1396" transform="translate(43.855 91.443)">
                <path id="Path_2686" data-name="Path 2686" d="M166.107,668.348a39.978,39.978,0,0,0,16.945,7.425V653.236a19.6,19.6,0,0,1-1.873-.823Z" transform="translate(-166.107 -652.412)" fill="#323232"/>
              </g>
              <g id="Group_1397" data-name="Group 1397" transform="translate(26.971 79.034)">
                <path id="Path_2687" data-name="Path 2687" d="M184.159,650.144l-21.315,0a44.93,44.93,0,0,0,7.022,17.916l15.072-15.938C184.65,651.48,184.387,650.821,184.159,650.144Z" transform="translate(-162.844 -650.144)" fill="#323232"/>
              </g>
              <g id="Group_1398" data-name="Group 1398" transform="translate(0 0)">
                <path id="Path_2688" data-name="Path 2688" d="M225.4,635.7c-37.429,0-67.771,32.085-67.771,71.663s30.343,71.662,67.772,71.662,67.772-32.083,67.772-71.662S262.832,635.7,225.4,635.7Zm0,122.849c-26.735,0-48.409-22.917-48.408-51.187s21.673-51.188,48.409-51.188,48.409,22.919,48.409,51.188S252.138,758.546,225.4,758.546Z" transform="translate(-157.631 -635.697)" fill="#323232"/>
              </g>
            </g>
            <g id="Group_1400" data-name="Group 1400" transform="translate(237.945 1452.883)">
              <path id="Path_2689" data-name="Path 2689" d="M961.2,747.649c-9.2-14.89-32.751-20.081-50.692-26.276-125.282-32-166.943-21.581-187.853-24.7-4.218-1.19-7.98-5.085-11.43-7.357-7.561-4.98-15.409-9.362-22.86-14.189-12.312-7.975-69.124-40.833-84.485-46.769-33.752-13.043-87.111-23.5-215.689-12.611-5.218-1.516-8.368-5.971-13.915-7.359-5.487-1.372-10.525,1.681-14.412,2.628a53.486,53.486,0,0,1-.994,11.561c-25.129,11.2-50.557,19.8-75.539,31-10.425,4.675-21.182,9.25-31.807,14.189-6.609,3.073-12.923,7.438-20.375,9.984-8.094,2.765-16.941,1.516-25.843,3.678-16.206,3.937-33.777,4.463-51.685,4.73-2.047,3.71-5.609,7.446-6.461,12.087,3.1,1.012,4.141,3.273,3.975,7.881-5.481,8.588-4.011,20.822-3.976,34.684-11.676,6.321-13.452,29.486-10.436,47.822l-.994,4.73c.624,5.184,2.22,10.661,2.484,16.291a54.8,54.8,0,0,1,12.424,12.612c1.5,2.2,2.226,5.987,4.97,6.831,14.67,11.324,88.957,13.664,88.957,13.664l3.908.226a79.187,79.187,0,0,1-.913-11.99c0-41.162,31.557-74.531,70.484-74.531S388.531,789.84,388.531,831c0,6.913-.893,18.138-2.56,24.49l390.488-.731A78.356,78.356,0,0,1,772.8,831c0-41.163,31.556-74.532,70.484-74.532S913.769,789.84,913.769,831a78.486,78.486,0,0,1-2.782,20.786l3.991-.088s30.764-1.572,38.266-5.256,10.437-14.188,10.437-14.188l-1.987-22.07s9.241-46.771-.5-62.537ZM337.5,693.528c-23.357-16.409-10.982-35.569-11.612-35.508-.373.351-.643.631-.812.82.5-.555.74-.814.812-.82,6.018-5.671,40.362-31.034,162.194-31.235,3.81,22.594,7.621,52.279,11.43,74.871-49.021-1.57-145.507-.694-162.016-8.128Zm314.083,8.4c-10.707,0-117.286-.032-117.286-.032s-17.2-47.961-23.356-74.584c.716.07,21.865,1.047,21.865,1.047s41.87,5.04,68.085,14.19c20.625,7.2,61.344,36.125,62.12,37.836-12.25.663-15.15,10.866-11.429,21.544Z" transform="translate(-135.432 -608.042)" fill="#3c464f"/>
            </g>
            <g id="Group_1410" data-name="Group 1410" transform="translate(877.773 1604.182)">
              <g id="Group_1401" data-name="Group 1401" transform="translate(74.746 91.444)">
                <path id="Path_2690" data-name="Path 2690" d="M273.546,653.237v22.539a40,40,0,0,0,16.943-7.426l-15.072-15.937A19.771,19.771,0,0,1,273.546,653.237Z" transform="translate(-273.546 -652.412)" fill="#3c464f"/>
              </g>
              <g id="Group_1402" data-name="Group 1402" transform="translate(86.482 79.036)">
                <path id="Path_2691" data-name="Path 2691" d="M275.815,652.126l15.071,15.935a44.9,44.9,0,0,0,7.022-17.917H276.591Q276.245,651.159,275.815,652.126Z" transform="translate(-275.815 -650.144)" fill="#3c464f"/>
              </g>
              <g id="Group_1403" data-name="Group 1403" transform="translate(86.48 46.372)">
                <path id="Path_2692" data-name="Path 2692" d="M275.814,660.11q.432.966.779,1.98h21.315a44.915,44.915,0,0,0-7.023-17.917Z" transform="translate(-275.814 -644.174)" fill="#3c464f"/>
              </g>
              <g id="Group_1404" data-name="Group 1404" transform="translate(43.856 28.519)">
                <path id="Path_2693" data-name="Path 2693" d="M282.647,664.274a19.5,19.5,0,0,1,1.872-.825V640.91a39.992,39.992,0,0,0-16.943,7.427Z" transform="translate(-267.576 -640.91)" fill="#3c464f"/>
              </g>
              <g id="Group_1405" data-name="Group 1405" transform="translate(74.746 28.517)">
                <path id="Path_2694" data-name="Path 2694" d="M290.489,648.335a39.972,39.972,0,0,0-16.943-7.425v22.538a19.871,19.871,0,0,1,1.872.824Z" transform="translate(-273.546 -640.91)" fill="#3c464f"/>
              </g>
              <g id="Group_1406" data-name="Group 1406" transform="translate(26.971 46.369)">
                <path id="Path_2695" data-name="Path 2695" d="M286.4,660.11l-15.071-15.937a44.91,44.91,0,0,0-7.022,17.918h21.317Q285.972,661.076,286.4,660.11Z" transform="translate(-264.312 -644.173)" fill="#3c464f"/>
              </g>
              <g id="Group_1407" data-name="Group 1407" transform="translate(43.855 91.443)">
                <path id="Path_2696" data-name="Path 2696" d="M267.576,668.348a39.984,39.984,0,0,0,16.945,7.425V653.235a19.634,19.634,0,0,1-1.874-.823Z" transform="translate(-267.576 -652.412)" fill="#3c464f"/>
              </g>
              <g id="Group_1408" data-name="Group 1408" transform="translate(26.971 79.033)">
                <path id="Path_2697" data-name="Path 2697" d="M285.627,650.144H264.312a44.915,44.915,0,0,0,7.022,17.917l15.071-15.938C286.118,651.481,285.856,650.821,285.627,650.144Z" transform="translate(-264.312 -650.144)" fill="#3c464f"/>
              </g>
              <g id="Group_1409" data-name="Group 1409">
                <path id="Path_2698" data-name="Path 2698" d="M326.871,635.7c-37.429,0-67.772,32.085-67.772,71.663s30.343,71.662,67.772,71.662,67.772-32.084,67.772-71.662S364.3,635.7,326.871,635.7Zm0,122.849c-26.735,0-48.408-22.917-48.408-51.187s21.673-51.187,48.409-51.187,48.408,22.918,48.408,51.187S353.606,758.546,326.871,758.546Z" transform="translate(-259.099 -635.697)" fill="#3c464f"/>
              </g>
            </g>
            <g id="Group_1420" data-name="Group 1420" transform="translate(1595.869 760.971)">
              <g id="Group_1411" data-name="Group 1411" transform="translate(43.855 91.444)">
                <path id="Path_2699" data-name="Path 2699" d="M423.314,499.1v22.539a40,40,0,0,1-16.943-7.427l15.072-15.936A19.825,19.825,0,0,0,423.314,499.1Z" transform="translate(-406.371 -498.281)" fill="#3c464f"/>
              </g>
              <g id="Group_1412" data-name="Group 1412" transform="translate(26.969 79.035)">
                <path id="Path_2700" data-name="Path 2700" d="M425.2,498,410.13,513.931a44.908,44.908,0,0,1-7.022-17.917h21.316Q424.769,497.028,425.2,498Z" transform="translate(-403.108 -496.013)" fill="#3c464f"/>
              </g>
              <g id="Group_1413" data-name="Group 1413" transform="translate(26.969 46.371)">
                <path id="Path_2701" data-name="Path 2701" d="M425.2,505.98q-.433.965-.779,1.98H403.108a44.911,44.911,0,0,1,7.023-17.918Z" transform="translate(-403.108 -490.043)" fill="#3c464f"/>
              </g>
              <g id="Group_1414" data-name="Group 1414" transform="translate(74.744 28.518)">
                <path id="Path_2702" data-name="Path 2702" d="M414.214,510.142a19.632,19.632,0,0,0-1.872-.824V486.779a40.009,40.009,0,0,1,16.943,7.426Z" transform="translate(-412.342 -486.779)" fill="#3c464f"/>
              </g>
              <g id="Group_1415" data-name="Group 1415" transform="translate(43.855 28.517)">
                <path id="Path_2703" data-name="Path 2703" d="M406.371,494.2a39.967,39.967,0,0,1,16.943-7.425v22.538a19.613,19.613,0,0,0-1.872.824Z" transform="translate(-406.371 -486.779)" fill="#3c464f"/>
              </g>
              <g id="Group_1416" data-name="Group 1416" transform="translate(86.48 46.369)">
                <path id="Path_2704" data-name="Path 2704" d="M414.61,505.979l15.071-15.937A44.91,44.91,0,0,1,436.7,507.96H415.386Q415.043,506.944,414.61,505.979Z" transform="translate(-414.61 -490.042)" fill="#3c464f"/>
              </g>
              <g id="Group_1417" data-name="Group 1417" transform="translate(74.744 91.442)">
                <path id="Path_2705" data-name="Path 2705" d="M429.286,514.217a39.984,39.984,0,0,1-16.945,7.425V499.1a19.5,19.5,0,0,0,1.873-.824Z" transform="translate(-412.342 -498.281)" fill="#3c464f"/>
              </g>
              <g id="Group_1418" data-name="Group 1418" transform="translate(86.48 79.033)">
                <path id="Path_2706" data-name="Path 2706" d="M415.388,496.013H436.7a44.925,44.925,0,0,1-7.022,17.916L414.61,497.992C414.9,497.349,415.159,496.689,415.388,496.013Z" transform="translate(-414.61 -496.013)" fill="#3c464f"/>
              </g>
              <g id="Group_1419" data-name="Group 1419" transform="translate(0 0)">
                <path id="Path_2707" data-name="Path 2707" d="M465.667,481.566c37.429,0,67.771,32.085,67.771,71.662s-30.343,71.663-67.772,71.663-67.772-32.083-67.772-71.663S428.237,481.566,465.667,481.566Zm0,122.848c26.735,0,48.408-22.917,48.408-51.187S492.4,502.04,465.667,502.04s-48.409,22.918-48.409,51.187S438.931,604.414,465.667,604.414Z" transform="translate(-397.895 -481.566)" fill="#3c464f"/>
              </g>
            </g>
            <g id="Group_1421" data-name="Group 1421" transform="translate(1016.042 609.671)">
              <path id="Path_2708" data-name="Path 2708" d="M290.28,593.518c9.2-14.89,32.75-20.081,50.691-26.276,125.282-32,166.943-21.581,187.853-24.7,4.219-1.19,7.98-5.084,11.43-7.357,7.562-4.981,15.409-9.362,22.86-14.189,12.313-7.975,69.124-40.833,84.485-46.769,33.752-13.043,87.111-23.5,215.689-12.612,5.218-1.516,8.368-5.97,13.915-7.358,5.486-1.372,10.525,1.681,14.411,2.628a53.494,53.494,0,0,0,.994,11.561c25.128,11.2,50.557,19.8,75.539,31,10.425,4.675,21.182,9.25,31.806,14.189,6.609,3.073,12.924,7.438,20.375,9.984,8.094,2.765,16.942,1.516,25.843,3.678,16.205,3.937,33.777,4.463,51.684,4.73,2.048,3.71,5.61,7.446,6.461,12.088-3.1,1.012-4.141,3.272-3.975,7.88,5.481,8.587,4.011,20.822,3.976,34.684,11.676,6.321,13.451,29.485,10.436,47.821l.993,4.73c-.624,5.184-2.22,10.661-2.484,16.291a54.8,54.8,0,0,0-12.424,12.612c-1.5,2.2-2.225,5.987-4.969,6.831-14.67,11.323-88.958,13.664-88.958,13.664l-3.908.227a79.237,79.237,0,0,0,.913-11.991c0-41.162-31.557-74.531-70.484-74.531s-70.485,33.368-70.485,74.531c0,6.913.894,18.138,2.56,24.49l-390.487-.731a78.353,78.353,0,0,0,3.658-23.759c0-41.163-31.557-74.532-70.484-74.532s-70.484,33.369-70.484,74.531a78.492,78.492,0,0,0,2.782,20.785l-3.99-.088S305.74,696,298.237,692.312,287.8,678.124,287.8,678.124l1.988-22.071s-9.242-46.771.5-62.536Zm623.7-54.121c23.357-16.409,10.983-35.569,11.612-35.509.374.351.643.632.812.821-.5-.555-.74-.814-.812-.821-6.017-5.67-40.362-31.033-162.194-31.234-3.81,22.594-7.621,52.279-11.431,74.871,49.022-1.57,145.508-.694,162.017-8.128Zm-314.083,8.4c10.707,0,117.286-.031,117.286-.031s17.2-47.961,23.357-74.585c-.716.069-21.866,1.048-21.866,1.048s-41.87,5.04-68.085,14.19c-20.625,7.2-61.344,36.125-62.12,37.835,12.25.663,15.15,10.866,11.429,21.544Z" transform="translate(-285.824 -453.91)" fill="#3c464f"/>
            </g>
            <g id="Group_1431" data-name="Group 1431" transform="translate(1070.896 760.97)">
              <g id="Group_1422" data-name="Group 1422" transform="translate(43.855 91.443)">
                <path id="Path_2709" data-name="Path 2709" d="M321.846,499.106v22.538a39.991,39.991,0,0,1-16.943-7.426l15.072-15.937A19.788,19.788,0,0,0,321.846,499.106Z" transform="translate(-304.903 -498.281)" fill="#3c464f"/>
              </g>
              <g id="Group_1423" data-name="Group 1423" transform="translate(26.969 79.036)">
                <path id="Path_2710" data-name="Path 2710" d="M323.732,498l-15.07,15.935a44.9,44.9,0,0,1-7.022-17.917h21.316Q323.3,497.028,323.732,498Z" transform="translate(-301.639 -496.013)" fill="#3c464f"/>
              </g>
              <g id="Group_1424" data-name="Group 1424" transform="translate(26.969 46.372)">
                <path id="Path_2711" data-name="Path 2711" d="M323.734,505.979q-.432.965-.779,1.98H301.639a44.913,44.913,0,0,1,7.023-17.918Z" transform="translate(-301.639 -490.043)" fill="#3c464f"/>
              </g>
              <g id="Group_1425" data-name="Group 1425" transform="translate(74.744 28.519)">
                <path id="Path_2712" data-name="Path 2712" d="M312.746,510.142a19.646,19.646,0,0,0-1.872-.825V486.779a40,40,0,0,1,16.943,7.426Z" transform="translate(-310.873 -486.779)" fill="#3c464f"/>
              </g>
              <g id="Group_1426" data-name="Group 1426" transform="translate(43.855 28.517)">
                <path id="Path_2713" data-name="Path 2713" d="M304.9,494.2a39.986,39.986,0,0,1,16.943-7.425v22.538a19.7,19.7,0,0,0-1.873.824Z" transform="translate(-304.903 -486.779)" fill="#3c464f"/>
              </g>
              <g id="Group_1427" data-name="Group 1427" transform="translate(86.48 46.369)">
                <path id="Path_2714" data-name="Path 2714" d="M313.142,505.979l15.071-15.937a44.9,44.9,0,0,1,7.022,17.918H313.918Q313.574,506.944,313.142,505.979Z" transform="translate(-313.142 -490.042)" fill="#3c464f"/>
              </g>
              <g id="Group_1428" data-name="Group 1428" transform="translate(74.744 91.443)">
                <path id="Path_2715" data-name="Path 2715" d="M327.818,514.217a39.988,39.988,0,0,1-16.945,7.425V499.1a19.619,19.619,0,0,0,1.873-.823Z" transform="translate(-310.873 -498.281)" fill="#3c464f"/>
              </g>
              <g id="Group_1429" data-name="Group 1429" transform="translate(86.479 79.034)">
                <path id="Path_2716" data-name="Path 2716" d="M313.921,496.013h21.314a44.924,44.924,0,0,1-7.022,17.917l-15.072-15.938C313.43,497.35,313.692,496.69,313.921,496.013Z" transform="translate(-313.142 -496.013)" fill="#3c464f"/>
              </g>
              <g id="Group_1430" data-name="Group 1430" transform="translate(0 0)">
                <path id="Path_2717" data-name="Path 2717" d="M364.2,481.566c37.429,0,67.772,32.085,67.772,71.663s-30.343,71.663-67.772,71.663-67.772-32.084-67.772-71.663S326.769,481.566,364.2,481.566Zm0,122.849c26.736,0,48.408-22.917,48.408-51.187S390.934,502.04,364.2,502.04s-48.409,22.918-48.409,51.187S337.463,604.415,364.2,604.415Z" transform="translate(-296.427 -481.566)" fill="#3c464f"/>
              </g>
            </g>
            <g id="Group_1435" data-name="Group 1435" transform="translate(171.81 3385.854)">
              <path id="Path_2720" data-name="Path 2720" d="M456.636,1137.949l-1.524,23.961q-10.838,72.412-63.425,115.826-52.95,43.379-124.7,35.181-68.481-11.461-109.538-67.065a179.048,179.048,0,0,1-21.672-39.172l-7.158-21.791a186.28,186.28,0,0,1-5.965-46.941q1.791-75.035,48.911-124.859T289.642,961.37q70.962,1.891,118.083,51.718t48.911,124.861" transform="translate(-122.649 -961.37)" fill="#3c464f"/>
            </g>
            <g id="Group_1438" data-name="Group 1438" transform="translate(308.457 3411.342)">
              <path id="Path_2723" data-name="Path 2723" d="M155.372,1023.5q21.373-44.1,126.928-57.471l76.456,146.282q-59.911,37.115-89.575,45.6-34.494,10.646-58.7-.088-33.023-15.653-51.883-59.309-17.229-43.789-3.329-74.794" transform="translate(-149.06 -966.029)" fill="#ffdede"/>
            </g>
          </g>
        </g>
      </g>
    </g>
    <g id="Group_1448" data-name="Group 1448" transform="translate(-1143.018 -996.857)">
      <g id="Group_1447" data-name="Group 1447" transform="translate(20524.355 -18403.316)">
        <ellipse id="Ellipse_387" data-name="Ellipse 387" cx="599.376" cy="45.75" rx="599.376" ry="45.75" transform="translate(69.79 2737.162)" opacity="0.392" fill="url(#radial-gradient)"/>
        <g id="Group_1446" data-name="Group 1446" transform="translate(0 0)">
          <path id="Path_2725" data-name="Path 2725" d="M417.48-54.734c-369.558,0-669.143,299.586-669.143,669.143a669.138,669.138,0,0,0,19.776,158.533h-.737l2.263,6.79a669.116,669.116,0,0,0,30.482,91.244L417.483,2718.981,1030.568,881.628a669.151,669.151,0,0,0,35.851-107.5l2.946-8.8h-.682a669.148,669.148,0,0,0,17.926-150.947c0-369.552-299.576-669.135-669.128-669.143Z" transform="translate(251.663 54.76)" stroke="#707070" stroke-linecap="round" stroke-linejoin="round" stroke-width="2.127" fill="url(#linear-gradient-5)"/>
          <g id="Group_1445" data-name="Group 1445" transform="translate(250.06 249.995)">
            <circle id="Ellipse_388" data-name="Ellipse 388" cx="419.184" cy="419.184" r="419.184" transform="translate(0)" fill="url(#linear-gradient-6)"/>
            <circle id="Ellipse_389" data-name="Ellipse 389" cx="400.349" cy="400.349" r="400.349" transform="translate(18.835 18.835)" fill="#57585b"/>
            <circle id="Ellipse_390" data-name="Ellipse 390" cx="383.942" cy="383.942" r="383.942" transform="translate(35.241 35.242)"/>
            <circle id="Ellipse_391" data-name="Ellipse 391" cx="331.438" cy="331.438" r="331.438" transform="translate(87.745 87.745)" fill="#383735"/>
            <circle id="Ellipse_392" data-name="Ellipse 392" cx="315.032" cy="315.032" r="315.032" transform="translate(104.152 104.152)" fill="#2b2a28"/>
            <circle id="Ellipse_393" data-name="Ellipse 393" cx="236.271" cy="236.271" r="236.271" transform="translate(182.912 182.912)" fill="#363533"/>
            <circle id="Ellipse_394" data-name="Ellipse 394" cx="119.511" cy="119.511" r="119.511" transform="translate(299.673 299.673)" fill="#3f3b3a"/>
            <circle id="Ellipse_395" data-name="Ellipse 395" cx="80.134" cy="80.134" r="80.134" transform="translate(339.049 339.05)" fill="#373332"/>
          </g>
          <circle id="Ellipse_396" data-name="Ellipse 396" cx="54.137" cy="54.137" r="54.137" transform="translate(453.917 439.791)" fill="#e1e1e1"/>
        </g>
      </g>
    </g>
  </g>
</svg>
