<svg xmlns="http://www.w3.org/2000/svg" xmlns:xlink="http://www.w3.org/1999/xlink" width="1325.906" height="2710.33" viewBox="0 0 1325.906 2710.33">
  <defs>
    <linearGradient id="linear-gradient" x1="-0.027" y1="0.991" x2="0.945" y2="0.996" gradientUnits="objectBoundingBox">
      <stop offset="0" stop-color="#2b2a29"/>
      <stop offset="1" stop-color="#4d4d4d"/>
    </linearGradient>
    <linearGradient id="linear-gradient-2" x1="0.991" y1="0.988" x2="0.057" y2="1" xlink:href="#linear-gradient"/>
    <linearGradient id="linear-gradient-3" x1="-0.012" y1="1" x2="0.935" y2="1" xlink:href="#linear-gradient"/>
    <linearGradient id="linear-gradient-4" x1="0.035" y1="1" x2="0.905" y2="1" gradientUnits="objectBoundingBox">
      <stop offset="0" stop-color="#4d4d4d"/>
      <stop offset="1" stop-color="#2b2a29"/>
    </linearGradient>
  </defs>
  <g id="Group_1454" data-name="Group 1454" transform="translate(-14457.727 24325.838)">
    <g id="Group_1444" data-name="Group 1444" transform="translate(14457.727 -24325.838)">
      <g id="Group_1443" data-name="Group 1443">
        <rect id="Rectangle_1530" data-name="Rectangle 1530" width="1315.616" height="2710.053" rx="657.808" transform="translate(10.29 0.278)" fill="#acacac"/>
        <path id="Path_2622" data-name="Path 2622" d="M384.677-.8H761.319V1354.165H129V254.873C129,114.271,244.074-1,384.873-1Z" transform="translate(-93.064 1)" fill-rule="evenodd" fill="url(#linear-gradient)"/>
        <path id="Path_2623" data-name="Path 2623" d="M3349,0h375.857c140.406,0,255.284,114.878,255.284,255.284V1350.06H3349Z" transform="translate(-2680.745 0.196)" fill-rule="evenodd" fill="url(#linear-gradient-2)"/>
        <path id="Path_2624" data-name="Path 2624" d="M128,6899.2H764.05V8254.165H383.873c-140.8,0-255.873-115.073-255.873-255.873V6899.2Z" transform="translate(-92.261 -5544.031)" fill-rule="evenodd" fill="url(#linear-gradient-3)"/>
        <path id="Path_2625" data-name="Path 2625" d="M3367,6875h627.606V7979.791c0,140.406-114.878,255.284-255.284,255.284H3367Z" transform="translate(-2695.21 -5524.744)" fill-rule="evenodd" fill="url(#linear-gradient-4)"/>
        <rect id="Rectangle_1531" data-name="Rectangle 1531" width="1229.919" height="2643.399" rx="614.959" transform="translate(52.609 33.605)" fill="#1b1b1b"/>
        <rect id="Rectangle_1532" data-name="Rectangle 1532" width="1179.135" height="2126.569" transform="translate(78.001 292.813)" fill="#fefefe"/>
        <rect id="Rectangle_1533" data-name="Rectangle 1533" width="267.144" height="21.689" rx="10.844" transform="translate(537.7 121.418)"/>
        <rect id="Rectangle_1534" data-name="Rectangle 1534" width="267.673" height="21.16" rx="10.58" transform="translate(537.7 116.657)" fill="#434242"/>
        <path id="Path_2626" data-name="Path 2626" d="M-47.323,2420.2h12.568V2598.11H-47.323A6.622,6.622,0,0,1-54,2591.433V2426.677A6.622,6.622,0,0,1-47.323,2420Z" transform="translate(54 -1944.582)" fill="#727271" fill-rule="evenodd"/>
        <ellipse id="Ellipse_385" data-name="Ellipse 385" cx="62.686" cy="62.157" rx="62.686" ry="62.157" transform="translate(609.115 2485.506)" fill="#acacac"/>
        <circle id="Ellipse_386" data-name="Ellipse 386" cx="60.57" cy="60.57" r="60.57" transform="translate(611.23 2487.093)" fill="#2b2a29"/>
        <rect id="Rectangle_1535" data-name="Rectangle 1535" width="28.037" height="28.566" transform="translate(657.782 2533.116)" fill="#fefefe"/>
        <rect id="Rectangle_1536" data-name="Rectangle 1536" width="23.276" height="22.747" transform="translate(660.427 2535.761)" fill="#2b2a29"/>
      </g>
    </g>
    <g id="layer1" transform="translate(14799.721 -24090.736)">
      <g id="Group_1294" data-name="Group 1294" transform="translate(-247.525 296.269)">
        <path id="Path_2552" data-name="Path 2552" d="M-221.018,296.269c-.189,0-.37.179-.5.5a3.223,3.223,0,0,0-.209,1.2V2229.352c0,.938.319,1.7.713,1.7l1135.4,0c.189,0,.371-.179.5-.5a3.223,3.223,0,0,0,.209-1.2V297.97c0-.938-.319-1.7-.713-1.7Z" transform="translate(221.731 -296.269)" fill="#d92114"/>
      </g>
    </g>
    <path id="Path_2782" data-name="Path 2782" d="M2515.869,3735.816a22.542,22.542,0,0,1-22.51-22.509c0-64.714,3.581-114.337,16.626-154.751H2389.509A22.71,22.71,0,0,1,2367,3536.047c0-59.854,6.139-96.176,35.043-125.08,24.812-24.811,64.459-40.67,130.963-59.087-22.509-16.626-39.391-46.3-47.321-79.55a198.219,198.219,0,0,1-4.093-71.621c3.325-24.556,12.022-48.344,26.858-67.016,19.7-25.067,49.623-41.182,91.572-41.182s71.876,16.115,91.572,41.182c14.836,18.672,23.533,42.46,26.858,67.016,3.325,23.788,1.535,48.6-4.093,71.621-7.929,33.252-24.555,62.924-47.065,79.55,18.161,4.86,34.531,9.976,48.855,14.836a339.336,339.336,0,0,1,42.973,17.394c20.463-6.395,42.716-12.533,66.5-19.184v-23.532c-47.065-26.09-82.619-85.433-98.99-153.473-10.487-42.716-13.557-89.014-7.674-133.265,6.139-45.019,21.742-87.735,48.6-121.755,35.043-44,88.247-72.9,163.448-72.9s128.406,28.9,163.449,72.9c26.857,34.02,42.46,76.736,48.6,121.755,5.883,44.251,2.813,90.549-7.674,133.265-16.37,68.039-51.925,127.382-98.99,153.473v23.532c23.788,6.651,46.042,12.789,66.5,19.184a339.3,339.3,0,0,1,42.972-17.394c14.324-4.86,30.694-9.72,48.855-14.836-22.509-16.626-39.136-46.3-47.065-79.55-5.627-23.021-7.418-47.832-4.093-71.621,3.326-24.556,12.022-48.344,26.857-67.016,19.7-25.067,49.623-41.182,91.572-41.182s71.876,16.115,91.572,41.182c14.836,18.672,23.533,42.46,26.858,67.016a198.213,198.213,0,0,1-4.093,71.621c-7.929,33.252-24.812,62.924-47.32,79.55,66.5,18.417,106.152,34.276,130.963,59.087,28.9,28.9,35.043,65.226,35.043,125.08a22.709,22.709,0,0,1-22.509,22.509H3352.038c13.045,40.414,16.626,90.037,16.626,154.751a22.542,22.542,0,0,1-22.51,22.509Zm807.521-45.274c-1.023-62.156-6.4-106.919-23.789-141.195a25.788,25.788,0,0,1-3.069-5.883,124.6,124.6,0,0,0-22.509-29.672c-42.716-42.716-122.778-71.365-265-109.477a22.491,22.491,0,0,1-17.905-22v-55.25a22.97,22.97,0,0,1,14.324-20.974c40.159-15.6,71.365-67.272,86.2-128.661,9.208-37.6,12.022-78.271,6.65-116.639-4.859-37.345-17.394-72.644-39.135-99.757-26.858-33.764-68.3-55.762-128.15-55.762s-101.292,22-128.149,55.762c-21.742,27.114-34.275,62.412-39.135,99.757-5.372,38.368-2.558,79.038,6.65,116.639,14.58,60.877,45.53,112.035,84.921,128.149a22.914,22.914,0,0,1,15.6,21.486v55.25a22.583,22.583,0,0,1-16.882,21.742c-142.985,38.368-223.3,66.761-266.019,109.733a124.582,124.582,0,0,0-22.509,29.672,19.859,19.859,0,0,1-3.069,5.627c-17.394,34.532-22.765,79.294-23.789,141.451ZM2530.7,3513.281a180.515,180.515,0,0,1,25.323-31.206c30.183-30.183,73.155-53.46,135.823-75.969-16.114-5.116-34.531-10.487-55.762-16.115a22.643,22.643,0,0,1-16.626-21.742v-27.881a22.684,22.684,0,0,1,15.347-21.486c16.371-7.162,29.416-29.927,35.81-57.041a153.651,153.651,0,0,0,3.325-54.994c-2.3-17.138-7.929-33-17.649-45.274-11.51-14.58-29.671-24.044-56.273-24.044-26.346,0-44.763,9.464-56.273,24.044-9.72,12.278-15.347,28.136-17.649,45.274a153.656,153.656,0,0,0,3.325,54.994c6.65,27.881,20.207,50.9,36.833,57.552a22.084,22.084,0,0,1,14.324,20.974v27.881a22.491,22.491,0,0,1-17.9,22c-69.83,18.673-108.71,32.485-128.661,52.436-15.092,15.092-20.207,36.578-21.486,70.6Zm639.469-107.175c62.667,22.509,105.64,45.786,135.823,75.969a180.561,180.561,0,0,1,25.323,31.206h118.173c-1.279-34.02-6.395-55.506-21.486-70.6-19.951-19.951-58.831-33.763-128.661-52.436a22.491,22.491,0,0,1-17.905-22v-27.881a22.084,22.084,0,0,1,14.324-20.974c16.626-6.651,30.183-29.671,36.833-57.552a153.3,153.3,0,0,0,3.325-54.994c-2.3-17.138-7.929-33-17.649-45.274-11.511-14.58-29.927-24.044-56.273-24.044-26.6,0-44.763,9.464-56.273,24.044-9.72,12.278-15.347,28.136-17.649,45.274a153.662,153.662,0,0,0,3.325,54.994c6.4,27.114,19.44,49.878,35.811,57.041a22.684,22.684,0,0,1,15.347,21.486v27.881a22.643,22.643,0,0,1-16.626,21.742C3204.7,3395.619,3186.288,3400.99,3170.173,3406.106Z" transform="translate(12185.196 -26268.582)" fill="#fff"/>
    <g id="Group_1451" data-name="Group 1451" transform="translate(4072.161 -9104.165)">
      <path id="Path_2726" data-name="Path 2726" d="M184.125,175.655l-69.336-26.414L50.65,184.318l7.241-65.947L0,75.758,73.812,61.414,102.173,0l38.378,57.081,75.417,4.658-50.094,49.624,18.25,64.293Z" transform="matrix(1, -0.001, 0.001, 1, 10480.035, -14901.954)" fill="#6c5353"/>
      <path id="Path_2727" data-name="Path 2727" d="M184.125,175.655l-69.336-26.414L50.65,184.318l7.241-65.947L0,75.758,73.812,61.414,102.173,0l38.378,57.081,75.417,4.658-50.094,49.624,18.25,64.293Z" transform="matrix(1, -0.001, 0.001, 1, 10700.256, -14901.954)" fill="#6c5353"/>
      <path id="Path_2728" data-name="Path 2728" d="M157.77,147.2,98.358,125.065,43.4,154.461,49.6,99.2,0,63.486,63.247,51.465,87.548,0l32.885,47.835,64.623,3.9L142.132,93.323,157.77,147.2Z" transform="matrix(1, -0.001, 0.001, 1, 10715.995, -14889.355)" fill="#ffcf00"/>
      <path id="Path_2729" data-name="Path 2729" d="M108.17,190.955l50.561,36.668L156.521,242.4c75.909-36.785,98.147-65.674,96.679-66.02L229.01,174.92l-33.975-47.331-24.207,51.749-62.656,11.617Z" transform="translate(10607.86 -15016.743)" fill="rgba(255,255,255,0.61)"/>
      <path id="Path_2730" data-name="Path 2730" d="M184.125,175.655l-69.336-26.414L50.65,184.318l7.241-65.947L0,75.758,73.812,61.414,102.173,0l38.378,57.081,75.417,4.658-50.094,49.624,18.25,64.293Z" transform="matrix(1, -0.001, 0.001, 1, 10920.479, -14901.954)" fill="#6c5353"/>
      <path id="Path_2731" data-name="Path 2731" d="M157.77,147.2,98.358,125.065,43.4,154.461,49.6,99.2,0,63.486,63.247,51.465,87.548,0l32.885,47.835,64.623,3.9L142.132,93.323,157.77,147.2Z" transform="matrix(1, -0.001, 0.001, 1, 10936.217, -14889.355)" fill="#ffcf00"/>
      <path id="Path_2732" data-name="Path 2732" d="M136.68,190.955l50.561,36.668L185.031,242.4c75.909-36.785,98.147-65.674,96.679-66.02L257.52,174.92l-33.975-47.331-24.207,51.749-62.656,11.617Z" transform="translate(10799.627 -15016.743)" fill="rgba(255,255,255,0.61)"/>
      <path id="Path_2733" data-name="Path 2733" d="M184.125,175.655l-69.336-26.414L50.65,184.318l7.241-65.947L0,75.758,73.812,61.414,102.173,0l38.378,57.081,75.417,4.658-50.094,49.624,18.25,64.293Z" transform="matrix(1, -0.001, 0.001, 1, 11146.078, -14901.954)" fill="#6c5353"/>
      <path id="Path_2734" data-name="Path 2734" d="M157.77,147.2,98.358,125.065,43.4,154.461,49.6,99.2,0,63.486,63.247,51.465,87.548,0l32.885,47.835,64.623,3.9L142.132,93.323,157.77,147.2Z" transform="matrix(1, -0.001, 0.001, 1, 11161.815, -14889.355)" fill="#ffcf00"/>
      <path id="Path_2735" data-name="Path 2735" d="M165.88,190.955l50.561,36.668L214.231,242.4c75.909-36.785,98.147-65.674,96.679-66.02L286.72,174.92l-33.975-47.331-24.207,51.749-62.656,11.617Z" transform="translate(10996.034 -15016.743)" fill="rgba(255,255,255,0.61)"/>
      <path id="Path_2736" data-name="Path 2736" d="M184.125,175.655l-69.336-26.414L50.65,184.318l7.241-65.947L0,75.758,73.812,61.414,102.173,0l38.378,57.081,75.417,4.658-50.094,49.624,18.25,64.293Z" transform="matrix(1, -0.001, 0.001, 1, 11371.662, -14901.954)" fill="#6c5353"/>
      <path id="Path_2737" data-name="Path 2737" d="M157.77,147.2,98.358,125.065,43.4,154.461,49.6,99.2,0,63.486,63.247,51.465,87.548,0l32.885,47.835,64.623,3.9L142.132,93.323,157.77,147.2Z" transform="matrix(1, -0.001, 0.001, 1, 11387.431, -14889.355)" fill="#ffcf00"/>
      <path id="Path_2738" data-name="Path 2738" d="M195.08,190.955l50.561,36.668-2.21,14.781c75.909-36.785,98.147-65.674,96.679-66.02L315.92,174.92l-33.976-47.331-24.207,51.749-62.656,11.617Z" transform="translate(11192.44 -15016.743)" fill="rgba(255,255,255,0.61)"/>
      <path id="Path_2779" data-name="Path 2779" d="M157.77,147.2,98.358,125.065,43.4,154.461,49.6,99.2,0,63.486,63.247,51.465,87.548,0l32.885,47.835,64.623,3.9L142.132,93.323,157.77,147.2Z" transform="matrix(1, -0.001, 0.001, 1, 10495.771, -14889.355)" fill="#ffcf00"/>
      <path id="Path_2780" data-name="Path 2780" d="M79.672,190.955l50.561,36.668L128.023,242.4c75.909-36.785,98.147-65.674,96.679-66.02l-24.189-1.464-33.975-47.331-24.207,51.749L79.673,190.955Z" transform="translate(10416.175 -15016.743)" fill="rgba(255,255,255,0.61)"/>
    </g>
  </g>
</svg>
