<svg width="1366" height="650" viewBox="0 0 1366 650" fill="none" xmlns="http://www.w3.org/2000/svg">
<path d="M1366 0H0V650H1366V0Z" fill="url(#paint0_linear)"/>
<path d="M1366 305C1364.61 305.007 1363.22 305.032 1361.83 305.068H1361.82C1355.65 305.238 1349.54 305.732 1343.94 306.592C1329.22 308.853 1312.07 311.558 1298.18 316.991V316.998C1297.87 317.105 1297.57 317.227 1297.28 317.348C1273.91 326.787 1249.21 332.353 1227.74 345.807C1206.58 359.059 1187.02 373.114 1165.52 385.792C1137.6 402.268 1113.06 420.207 1090.16 443.041C1070.93 462.21 1055.39 493.989 1047.9 519.28C1046.96 522.484 1046.11 525.705 1045.35 528.926C1038.83 556.607 1038.91 585.007 1039.03 613.449C1039.09 626.045 1041.93 637.919 1043.79 650H1366V305Z" fill="white" fill-opacity="0.2"/>
<path d="M918 0C934.302 19.804 949.688 36.9825 951.987 39.2022C963.937 50.7482 976.8 62.6133 991.829 69.9209C1003.6 75.6506 1015.71 81.3247 1027.84 86.1977C1050.45 95.2846 1073.01 103.962 1095.2 114.142C1119.78 125.431 1142.05 141.968 1164.41 157.124C1177.29 165.854 1190.23 174.501 1202.55 184.011C1213.86 192.723 1226.59 199.323 1237.78 208.174C1245.56 214.313 1254.83 217.66 1263.95 221.427C1286.71 230.826 1310.94 234.336 1335.35 236.209C1346.04 237.034 1355.97 237.26 1366 236.666V0H918Z" fill="white" fill-opacity="0.2"/>
<defs>
<linearGradient id="paint0_linear" x1="683" y1="650" x2="683" y2="0" gradientUnits="userSpaceOnUse">
<stop offset="0.0412306" stop-color="#489DE4"/>
<stop offset="1" stop-color="#18E8D9"/>
</linearGradient>
</defs>
</svg>
