<svg xmlns="http://www.w3.org/2000/svg" xmlns:xlink="http://www.w3.org/1999/xlink" width="3275.109" height="5123.525" viewBox="0 0 3275.109 5123.525">
  <defs>
    <linearGradient id="linear-gradient" x1="-0.027" y1="0.991" x2="0.945" y2="0.996" gradientUnits="objectBoundingBox">
      <stop offset="0" stop-color="#2b2a29"/>
      <stop offset="1" stop-color="#4d4d4d"/>
    </linearGradient>
    <linearGradient id="linear-gradient-2" x1="0.991" y1="0.988" x2="0.057" y2="1" xlink:href="#linear-gradient"/>
    <linearGradient id="linear-gradient-3" x1="-0.012" y1="1" x2="0.935" y2="1" xlink:href="#linear-gradient"/>
    <linearGradient id="linear-gradient-4" x1="0.035" y1="1" x2="0.905" y2="1" gradientUnits="objectBoundingBox">
      <stop offset="0" stop-color="#4d4d4d"/>
      <stop offset="1" stop-color="#2b2a29"/>
    </linearGradient>
    <linearGradient id="linear-gradient-5" x1="0.868" y1="0.607" x2="0.132" y2="0.393" gradientUnits="objectBoundingBox">
      <stop offset="0" stop-color="#f70a0a"/>
      <stop offset="1" stop-color="#080303"/>
    </linearGradient>
  </defs>
  <g id="Group_1334" data-name="Group 1334" transform="translate(-17379.549 21174.711)">
    <g id="Group_1333" data-name="Group 1333">
      <rect id="Rectangle_1530" data-name="Rectangle 1530" width="2487" height="5123" rx="1243.5" transform="translate(17399 -21174.186)" fill="#acacac"/>
      <path id="Path_2622" data-name="Path 2622" d="M612.323-.629h711.993V2560.762H129V482.695C129,216.9,346.533-1,612.695-1Z" transform="translate(17318.48 -21173.711)" fill-rule="evenodd" fill="url(#linear-gradient)"/>
      <path id="Path_2623" data-name="Path 2623" d="M3349,0h710.508c265.419,0,482.581,217.161,482.581,482.581v2069.53H3349Z" transform="translate(15293.797 -21174.34)" fill-rule="evenodd" fill="url(#linear-gradient-2)"/>
      <path id="Path_2624" data-name="Path 2624" d="M128,6899.371H1330.369V9460.762H611.695C345.533,9460.762,128,9243.23,128,8977.068v-2077.7Z" transform="translate(17319.109 -25512.32)" fill-rule="evenodd" fill="url(#linear-gradient-3)"/>
      <path id="Path_2625" data-name="Path 2625" d="M3367,6875H4553.407V8963.462c0,265.419-217.162,482.581-482.581,482.581H3367Z" transform="translate(15282.479 -25497.229)" fill-rule="evenodd" fill="url(#linear-gradient-4)"/>
      <rect id="Rectangle_1531" data-name="Rectangle 1531" width="2325" height="4997" rx="1162.5" transform="translate(17479 -21111.186)" fill="#1b1b1b"/>
      <rect id="Rectangle_1532" data-name="Rectangle 1532" width="2229" height="4020" transform="translate(17527 -20621.186)" fill="#fefefe"/>
      <rect id="Rectangle_1533" data-name="Rectangle 1533" width="505" height="41" rx="20.5" transform="translate(18396 -20945.186)"/>
      <rect id="Rectangle_1534" data-name="Rectangle 1534" width="506" height="40" rx="20" transform="translate(18396 -20954.186)" fill="#434242"/>
      <path id="Path_2626" data-name="Path 2626" d="M-41.379,2420.371h23.758v336.322H-41.379A12.517,12.517,0,0,1-54,2744.072v-311.45A12.517,12.517,0,0,1-41.379,2420Z" transform="translate(17433.549 -22695.996)" fill="#727271" fill-rule="evenodd"/>
      <ellipse id="Ellipse_385" data-name="Ellipse 385" cx="118.5" cy="117.5" rx="118.5" ry="117.5" transform="translate(18531 -16476.188)" fill="#acacac"/>
      <circle id="Ellipse_386" data-name="Ellipse 386" cx="114.5" cy="114.5" r="114.5" transform="translate(18535 -16473.188)" fill="#2b2a29"/>
      <rect id="Rectangle_1535" data-name="Rectangle 1535" width="53" height="54" transform="translate(18623 -16386.188)" fill="#fefefe"/>
      <rect id="Rectangle_1536" data-name="Rectangle 1536" width="44" height="43" transform="translate(18628 -16381.187)" fill="#2b2a29"/>
      <g id="Group_1331" data-name="Group 1331" transform="translate(5088.773 1514.318)" opacity="0.547">
        <g id="Group_1329" data-name="Group 1329" transform="translate(13347.043 -20455.898)">
          <path id="Path_2586" data-name="Path 2586" d="M828.5,883.033c.24,7.2,5.037,21.107,6.476,29.741,1.919,10.793,1.439,23.505,3.6,33.819h95.939c5.037-27.822-11.753-77.231-22.066-96.659-5.756,1.2-15.35,5.516-21.347,7.915ZM446.18,800.286c-14.871,18.229-25.664,38.136-31.18,60.922,14.871-24.7,19.188-32.14,37.9-53.726Zm12.952-16.31,7.915,7.435c8.874-5.517,20.867-17.029,41.974-28.542,4.077-2.4,11.513-5.517,14.631-8.874-.72-3.6-2.4-6.956-3.838-10.553l-5.277-10.314C501.585,740.323,463.689,773.423,459.132,783.976ZM534.2,721.855l7.915,23.026c6.956-.48,20.867-6.236,29.5-7.915a271.764,271.764,0,0,1,34.538-4.317c1.2-4.8.959-33.579.24-39.575C576.178,697.87,557.47,707.224,534.2,721.855ZM627.986,689c-.72,6.476-.959,38.616.48,43.892,17.029,1.439,41.974,7.2,59.243,12.472,1.919.48,6.476,2.159,8.155.72l21.826-53.007C697.3,685.158,652.211,686.6,627.986,689Zm88.264,65c4.8,2.878,8.635,4.557,13.671,7.915,30.221,19.907,35.977,31.9,39.335,28.3l52.767-53.726C809.311,724.493,757.5,697.63,737.6,696.911Zm67.877,52.527,27.343,41.014c3.118,5.037,4.8,10.314,7.915,15.83,2.4,0,74.353-26.863,84.187-31.9-.48-6.956-21.826-36.457-27.1-43.892-3.6-5.037-27.583-33.579-36.457-35.977C832.1,757.593,786.046,803.643,784.127,806.522Z" transform="translate(-415 -687.101)" fill-rule="evenodd" fill="url(#linear-gradient-5)"/>
          <g id="Group_1328" data-name="Group 1328" transform="translate(208.429 148.442)">
            <path id="Path_2589" data-name="Path 2589" d="M1321.416,1367.881a31.626,31.626,0,0,1,18.948,14.391c4.077-6.716,40.295-60.922,46.051-73.154.719-1.2,1.439-2.638,1.2-3.118l-2.4,2.4C1366.028,1327.826,1341.564,1348.693,1321.416,1367.881Zm-11.273,8.155A26.143,26.143,0,1,1,1284,1402.179,26,26,0,0,1,1310.144,1376.036Z" transform="translate(-1284 -1306)" fill="none" stroke="#fefefe" stroke-width="17.945" fill-rule="evenodd"/>
            <path id="_1" data-name="1" d="M1321.416,1367.881a31.626,31.626,0,0,1,18.948,14.391c4.077-6.716,40.295-60.922,46.051-73.154.719-1.2,1.439-2.638,1.2-3.118l-2.4,2.4C1366.028,1327.826,1341.564,1348.693,1321.416,1367.881Zm-11.273,8.155A26.143,26.143,0,1,1,1284,1402.179,26,26,0,0,1,1310.144,1376.036Z" transform="translate(-1284 -1306)" fill-rule="evenodd"/>
          </g>
          <path id="Path_2590" data-name="Path 2590" d="M479.693,1172.854a210.035,210.035,0,0,1,2.638-28.3c7.2-46.771,29.022-82.028,59.962-105.533s71-35.018,114.888-34.059a264.516,264.516,0,0,1,33.1,2.878c20.867,3.358,32.38,9.114,48.689,17.029,1.919.959,4.077,1.919,6,2.878-39.815-26.623-119.685-61.4-216.823-3.118-28.3,21.107-48.21,40.534-61.881,63.56-13.671,22.786-21.107,49.169-24.465,84.427Zm6.716-27.823a240.129,240.129,0,0,0-2.638,30.221v1.919h-2.159l-42.213-.24H437l.24-2.4c3.358-37.177,11.033-64.759,25.184-88.5s34.538-43.413,63.08-65h.24c102.655-61.641,186.6-21.586,225.7,6,7.435,5.517,13.432,10.314,17.509,13.911h0c4.8,6.476,6,6.956,10.074,13.432,2.4.24-27.583-19.428-32.38-20.867l-9.594-4.8c-15.83-7.675-27.1-13.432-47.25-16.55a260.8,260.8,0,0,0-32.859-2.878c-42.933-.959-82.028,10.314-112.009,33.1C514.711,1065.4,493.6,1099.7,486.409,1145.032Z" transform="translate(-431.723 -916.24)" fill="#fefefe"/>
          <path id="Path_2591" data-name="Path 2591" d="M489.213,1181.8c2.638-124.242,97.618-182.525,208.429-165.016,24.225,3.838,35.738,11.033,57.564,21.586l25.9,16.79c.48.24-105.054-110.57-246.565-25.664-56.844,42.693-80.829,78.43-87.545,152.064Z" transform="translate(-439.325 -923.033)" fill-rule="evenodd"/>
        </g>
        <g id="Group_1330" data-name="Group 1330" transform="translate(12956.365 -20173.176)">
          <path id="Path_2587" data-name="Path 2587" d="M877,2206.275c51.271,5.469,67.677-6.836,108.01-19.825,32.813-10.938,62.892-21.875,95.705-32.813l12.305-51.271c-19.825,0-86.135,26.661-110.061,32.813-.684-25.977,29.4-138.773,28.028-155.179h-87.5Z" transform="translate(-603.556 -1980)" fill="#fdfdfd" fill-rule="evenodd"/>
          <path id="Path_2588" data-name="Path 2588" d="M898,2201.45c41.7,1.367,60.841-9.571,95.022-21.192,82.033-28.028,88.186-19.825,91.6-58.791l-108.01,32.813L1006.689,1995H937.645C930.808,2036.017,897.312,2178.208,898,2201.45Z" transform="translate(-610.195 -1984.746)" fill="#8d0509" fill-rule="evenodd"/>
          <path id="Path_2592" data-name="Path 2592" d="M615.773,2185.688H567.92l-47.853-75.2c-1.367-1.367-2.734-4.1-4.785-9.571H514.6v84.768H477V2012.735h37.6v82.033h.684l4.785-9.571,45.8-72.463H610.3l-57.423,82.717Zm462.8,3.418c-23.926,0-43.067-8.2-58.107-24.61-15.039-15.723-22.559-36.915-22.559-62.892,0-27.344,7.52-49.9,23.243-66.31,15.039-17.09,35.548-25.293,60.158-25.293,23.926,0,43.067,7.52,58.107,23.926,14.356,16.407,21.876,37.6,21.876,64.259,0,27.344-7.52,49.22-23.243,65.626C1123.011,2180.9,1103.186,2189.106,1078.576,2189.106Zm2.051-145.609c-12.989,0-23.926,4.785-31.446,15.039s-11.621,23.927-11.621,41.017,4.1,30.762,11.621,41.017c7.52,9.571,17.774,15.039,30.079,15.039,12.989,0,23.243-5.469,30.762-15.039s11.621-23.243,11.621-40.333c0-17.774-3.418-32.13-10.938-41.7C1103.186,2048.282,1092.932,2043.5,1080.627,2043.5Zm317.195,142.191h-36.915V2082.463c0-11.622.683-23.927,1.367-37.6h-.684c-2.051,10.938-3.418,18.458-5.469,23.243l-38.966,117.581h-30.762l-39.649-116.214c-.684-3.418-2.734-11.621-4.785-24.61h-1.367c1.367,17.09,1.367,32.13,1.367,45.118v95.705h-33.5V2012.735h54.689l34.181,102.542a161.946,161.946,0,0,1,6.152,24.61h.684q3.076-14.356,6.152-24.61l34.181-102.542h53.321Zm157.914,0h-99.807V2012.735h95.705v31.446h-58.107v38.966h54.005v31.446h-54.005v39.649h62.208Zm163.383-141.507h-47.853v141.507h-37.6V2044.181H1586.5v-31.446h132.62Zm187.992,141.507h-40.333l-11.621-38.282h-59.474l-11.621,38.282h-41.017l60.841-172.953h44.435Zm-60.841-68.361L1828.5,2059.22a49.956,49.956,0,0,1-2.734-15.723h-1.367c0,5.469-1.367,10.254-2.734,15.039l-18.457,58.791ZM688.919,2185.688h-37.6V2012.735h37.6Z" transform="translate(-477 -1989.492)"/>
        </g>
      </g>
      <g id="Group_1332" data-name="Group 1332" transform="translate(6184.808 -501)">
        <path id="Path_2604" data-name="Path 2604" d="M847.43,760.551c15.395-.1,30.813-.024,46.232-.048,15.2,0,30.433-.024,45.662.024-15.347,69.752-30.291,139.622-46.09,209.3-15.252-69.776-30.742-139.48-45.8-209.279Z" transform="translate(11521.012 -19494.969)" fill="#d92114" stroke="#d92114" stroke-width="0.3"/>
        <path id="Path_2605" data-name="Path 2605" d="M543.38,903.574q33.6-31.36,67.257-62.625,59.655,97.572,119.238,195.144c-7.46-3.231-13.423-8.862-20.122-13.3C654.3,983.067,598.569,943.677,543.38,903.575Z" transform="translate(11102.717 -19384.287)" fill="#d92114" stroke="#d92114" stroke-width="0.3"/>
        <path id="Path_2606" data-name="Path 2606" d="M1188.718,933.263c12.164-30.908,23.14-62.339,35.993-92.963,25.611,16.63,51.53,32.761,77.235,49.249q-79.184,82.355-158.676,164.425C1157.263,1013.373,1173.775,973.555,1188.718,933.263Z" transform="translate(11928.011 -19385.182)" fill="#d92114" stroke="#d92114" stroke-width="0.3"/>
        <path id="Path_2612" data-name="Path 2612" d="M981.746,1117.406c40.673-21.714,93.984-15.68,128.765,14.611,15.561,13.185,25.8,31.146,38.178,47.111q235.448,321.794,470.9,643.636c4.039-2.9,8.1-5.8,12.188-8.648q-54.06-73.874-108.073-147.747c-6.319-8.79-13.209-17.2-18.317-26.751-16.559-29.982-18.175-67.471-5.322-99.092,12.378-31.36,39.675-54.856,70.274-67.685,45.757-18.412,102.418-3.4,132.448,35.9,40.34,54.523,80.086,109.5,120.308,164.116l.57.95c3.991-3.041,7.911-6.224,11.9-9.313q-6.165-8.232-12.187-16.44c-30.172-41.385-60.534-82.652-90.658-124.061-26.038-36.681-26.87-88.876-2.875-126.77,20.336-31.74,55.569-54.5,93.367-57.825,36.9-3.231,75,12.093,98.522,40.863,12.5,15.894,23.924,32.571,36.016,48.75q34.923,47.717,69.847,95.481,5.951-4.455,11.974-8.885c-17.153-23.71-34.52-47.253-51.768-70.844-13.281-17.556-21.9-38.7-23.544-60.7-3.873-40.934,15.917-82.985,50.223-105.721,35.28-27.487,86.691-31.241,125.724-9.527a114.207,114.207,0,0,1,37.608,32.975q75.513,103.13,151,206.309c-14.3,8.767-27.25,19.481-40.91,29.2q-325.215,237.728-650.312,475.623c-37.442,27.891-75.834,54.547-112.634,83.246q-46.327-63.432-92.725-126.746-236.268-323.078-472.63-646.107c-9.242-12.876-19.006-25.349-27.8-38.534-23.948-37.418-22.783-88.615,2.091-125.3,11.736-18.1,29.222-31.621,47.848-42.074Z" transform="translate(11613.317 -19021.787)" fill="#ba7d5d" stroke="#f9b23e" stroke-width="0.3"/>
        <path id="Path_2613" data-name="Path 2613" d="M543.38,1243.321c62.387-44.426,124.37-89.494,187.161-133.351q-59.726,98.213-119.9,196.165c-22.451-20.907-45.092-41.623-67.257-62.814Z" transform="translate(11102.717 -19014.186)" fill="#d92114" stroke="#d92114" stroke-width="0.3"/>
        <path id="Path_2614" data-name="Path 2614" d="M1118.4,1121.5c68.445,33.9,136.059,69.538,204.29,103.939-18.792,24.233-38.321,47.9-57.16,72.08-49.392-58.4-98.166-117.291-147.13-176.019Z" transform="translate(11893.796 -18998.322)" fill="#d92114" stroke="#d92114" stroke-width="0.3"/>
        <path id="Path_2615" data-name="Path 2615" d="M889.89,1212.949c2.542-10.6,4.751-21.286,7.317-31.859,15.585,69.562,30.528,139.266,45.97,208.852q-27.4-.036-54.832,0c-12.378-.024-24.731,0-37.085,0C864.089,1330.928,877.322,1272.01,889.89,1212.949Z" transform="translate(11526.28 -18916.344)" fill="#d92114" stroke="#d92114" stroke-width="0.3"/>
        <path id="Path_2616" data-name="Path 2616" d="M1934.406,1303.508c13.661-9.717,26.608-20.431,40.91-29.2q66.6,91.051,133.232,182.1c9.717,13.9,20.693,27.012,29.6,41.433q68.421,264.064,136.3,528.318-247.279,181-494.677,361.825c-72.769-40.34-145.7-80.442-218.4-120.877-4.443-2.518-8.862-4.871-13.3-7.151-13.85,9.408-31.36,8.386-47.277,7.507-47.277-4.181-92.393-19.813-138.292-30.79-19.053-4.942-38.131-9.765-57.161-14.73-15.347-76.237-31.17-152.38-46.588-228.57-1.473-6.082-1.5-12.734-4.466-18.246-28.058-37.252-55.26-75.145-82.818-112.752,36.8-28.7,75.192-55.355,112.634-83.246q325.251-237.693,650.312-475.624Z" transform="translate(11966.793 -18788.096)" fill="#ba7d5d" stroke="#ba7d5d" stroke-width="0.3"/>
        <path id="Path_2617" data-name="Path 2617" d="M1297.284,1333.3q6.023,8.2,12.188,16.44c-3.991,3.088-7.911,6.272-11.9,9.313l-.57-.95C1296.88,1349.812,1297.118,1341.544,1297.284,1333.3Z" transform="translate(12139.457 -18706.941)" fill="#32393c" stroke="#32393c" stroke-width="0.3"/>
        <path id="Path_2619" data-name="Path 2619" d="M1123,1491.572c35.375-18.887,80.514-17.129,114.463,4.086a113.543,113.543,0,0,1,34.235,32.453q64.466,89.375,129.074,178.679c4.7-3.635,9.859-7.1,12.71-12.544,2.97,5.512,2.993,12.164,4.466,18.246,15.418,76.19,31.241,152.333,46.588,228.57-63.124-16.535-126.342-32.762-189.062-50.841-13.3-4.371-27.749-6.866-39.128-15.561-12.14-8.41-22.094-19.505-30.457-31.574q-64.608-89.661-129.383-179.179c-24.613-34.329-27.369-82.343-7.7-119.595,11.618-23.021,31.835-40.53,54.191-52.741Z" transform="translate(11807.706 -18507.188)" fill="#ba7d5d" stroke="#ba7d5d" stroke-width="0.3"/>
        <path id="Path_2621" data-name="Path 2621" d="M2092.5,1560.05c7.531-6.32,20.36-4.8,25.8,3.611,30.671,42.122,61.65,84.054,92.226,126.247,6.248,8.125,3.231,20.5-5.44,25.634q-351.194,256.9-702.436,513.873c-7.46,6.011-19.838,4.538-25.278-3.469q-46.184-63.04-92.25-126.152c-5.82-7.365-4.419-19.125,3.255-24.589q51.138-37.454,102.3-74.836,247.529-180.71,494.677-361.825c35.636-26.3,71.486-52.29,107.146-78.495Z" transform="translate(12255.812 -18400.336)" fill="#1b2326" stroke="#1b2326" stroke-width="0.3"/>
      </g>
    </g>
  </g>
</svg>
