<svg xmlns="http://www.w3.org/2000/svg" xmlns:xlink="http://www.w3.org/1999/xlink" width="2710.568" height="5123.525" viewBox="0 0 2710.568 5123.525">
  <defs>
    <linearGradient id="linear-gradient" x1="-0.027" y1="0.991" x2="0.945" y2="0.996" gradientUnits="objectBoundingBox">
      <stop offset="0" stop-color="#2b2a29"/>
      <stop offset="1" stop-color="#4d4d4d"/>
    </linearGradient>
    <linearGradient id="linear-gradient-2" x1="0.991" y1="0.988" x2="0.057" y2="1" xlink:href="#linear-gradient"/>
    <linearGradient id="linear-gradient-3" x1="-0.012" y1="1" x2="0.935" y2="1" xlink:href="#linear-gradient"/>
    <linearGradient id="linear-gradient-4" x1="0.035" y1="1" x2="0.905" y2="1" gradientUnits="objectBoundingBox">
      <stop offset="0" stop-color="#4d4d4d"/>
      <stop offset="1" stop-color="#2b2a29"/>
    </linearGradient>
  </defs>
  <g id="Group_1454" data-name="Group 1454" transform="translate(-20710.586 21269.289)">
    <g id="Group_1333" data-name="Group 1333" transform="translate(3331.038 -94.578)">
      <rect id="Rectangle_1530" data-name="Rectangle 1530" width="2487" height="5123" rx="1243.5" transform="translate(17399 -21174.186)" fill="#acacac"/>
      <path id="Path_2622" data-name="Path 2622" d="M612.323-.629h711.993V2560.762H129V482.7C129,216.9,346.533-1,612.7-1Z" transform="translate(17318.48 -21173.711)" fill-rule="evenodd" fill="url(#linear-gradient)"/>
      <path id="Path_2623" data-name="Path 2623" d="M3349,0h710.508c265.419,0,482.581,217.161,482.581,482.581v2069.53H3349Z" transform="translate(15293.797 -21174.34)" fill-rule="evenodd" fill="url(#linear-gradient-2)"/>
      <path id="Path_2624" data-name="Path 2624" d="M128,6899.371H1330.369V9460.762H611.7c-266.162,0-483.7-217.531-483.7-483.693v-2077.7Z" transform="translate(17319.109 -25512.32)" fill-rule="evenodd" fill="url(#linear-gradient-3)"/>
      <path id="Path_2625" data-name="Path 2625" d="M3367,6875H4553.407V8963.462c0,265.419-217.162,482.581-482.581,482.581H3367Z" transform="translate(15282.479 -25497.229)" fill-rule="evenodd" fill="url(#linear-gradient-4)"/>
      <rect id="Rectangle_1531" data-name="Rectangle 1531" width="2325" height="4997" rx="1162.5" transform="translate(17479 -21111.186)" fill="#1b1b1b"/>
      <rect id="Rectangle_1532" data-name="Rectangle 1532" width="2229" height="4020" transform="translate(17527 -20621.186)" fill="#fefefe"/>
      <rect id="Rectangle_1533" data-name="Rectangle 1533" width="505" height="41" rx="20.5" transform="translate(18396 -20945.186)"/>
      <rect id="Rectangle_1534" data-name="Rectangle 1534" width="506" height="40" rx="20" transform="translate(18396 -20954.186)" fill="#434242"/>
      <path id="Path_2626" data-name="Path 2626" d="M-41.379,2420.371h23.758v336.322H-41.379a12.515,12.515,0,0,1-8.955-3.666A12.517,12.517,0,0,1-54,2744.072v-311.45a12.517,12.517,0,0,1,3.665-8.956A12.517,12.517,0,0,1-41.379,2420Z" transform="translate(17433.549 -22695.996)" fill="#727271" fill-rule="evenodd"/>
      <ellipse id="Ellipse_385" data-name="Ellipse 385" cx="118.5" cy="117.5" rx="118.5" ry="117.5" transform="translate(18531 -16476.188)" fill="#acacac"/>
      <circle id="Ellipse_386" data-name="Ellipse 386" cx="114.5" cy="114.5" r="114.5" transform="translate(18535 -16473.188)" fill="#2b2a29"/>
      <rect id="Rectangle_1535" data-name="Rectangle 1535" width="53" height="54" transform="translate(18623 -16386.188)" fill="#fefefe"/>
      <rect id="Rectangle_1536" data-name="Rectangle 1536" width="44" height="43" transform="translate(18628 -16381.187)" fill="#2b2a29"/>
    </g>
    <path id="Path_2782" data-name="Path 2782" d="M2551.02,3942.618a27.865,27.865,0,0,1-27.825-27.824c0-80,4.427-141.335,20.552-191.292H2394.824A28.072,28.072,0,0,1,2367,3695.677c0-73.988,7.588-118.886,43.317-154.615,30.67-30.67,79.679-50.273,161.886-73.039-27.824-20.552-48.692-57.229-58.494-98.333a245.017,245.017,0,0,1-5.059-88.532c4.11-30.354,14.861-59.759,33.2-82.84,24.346-30.987,61.34-50.906,113.194-50.906s88.848,19.92,113.194,50.906c18.339,23.081,29.089,52.486,33.2,82.84,4.11,29.405,1.9,60.075-5.059,88.532-9.8,41.1-30.353,77.781-58.178,98.333,22.449,6.008,42.685,12.331,60.391,18.339,20.552,6.957,37.942,13.912,53.12,21.5,25.295-7.9,52.8-15.493,82.208-23.714v-29.088c-58.178-32.251-102.127-105.606-122.364-189.711-12.964-52.8-16.758-110.032-9.486-164.732,7.589-55.649,26.875-108.452,60.075-150.5,43.317-54.384,109.084-90.113,202.042-90.113s158.726,35.729,202.043,90.113c33.2,42.053,52.486,94.856,60.075,150.5,7.272,54.7,3.478,111.929-9.486,164.732-20.236,84.1-64.186,157.46-122.364,189.711v29.088c29.405,8.221,56.914,15.81,82.208,23.714,15.176-7.588,32.567-14.544,53.119-21.5,17.707-6.008,37.942-12.015,60.391-18.339-27.824-20.552-48.377-57.229-58.178-98.333-6.956-28.457-9.17-59.127-5.059-88.532,4.111-30.354,14.861-59.759,33.2-82.84,24.346-30.987,61.34-50.906,113.195-50.906s88.848,19.92,113.194,50.906c18.339,23.081,29.089,52.486,33.2,82.84a245.023,245.023,0,0,1-5.059,88.532c-9.8,41.1-30.67,77.781-58.494,98.333,82.208,22.766,131.217,42.369,161.886,73.039,35.729,35.729,43.317,80.627,43.317,154.615a28.072,28.072,0,0,1-27.824,27.824H3584.629c16.125,49.957,20.552,111.3,20.552,191.292a27.865,27.865,0,0,1-27.825,27.824Zm998.2-55.965c-1.264-76.833-7.9-132.165-29.406-174.534a31.873,31.873,0,0,1-3.794-7.272,154.008,154.008,0,0,0-27.824-36.678c-52.8-52.8-151.769-88.216-327.567-135.327a27.8,27.8,0,0,1-22.133-27.192v-68.3a28.394,28.394,0,0,1,17.706-25.927c49.641-19.287,88.216-83.157,106.555-159.041,11.383-46.479,14.861-96.753,8.221-144.181-6.007-46.163-21.5-89.8-48.376-123.312-33.2-41.736-84.422-68.928-158.409-68.928s-125.209,27.192-158.408,68.928c-26.875,33.516-42.369,77.149-48.376,123.312-6.64,47.428-3.162,97.7,8.221,144.181,18.023,75.252,56.281,138.489,104.973,158.408a28.325,28.325,0,0,1,19.287,26.559v68.3a27.915,27.915,0,0,1-20.868,26.875c-176.748,47.428-276.03,82.524-328.833,135.644a154,154,0,0,0-27.824,36.678,24.55,24.55,0,0,1-3.794,6.956c-21.5,42.686-28.141,98.018-29.406,174.851Zm-979.858-219.116a223.15,223.15,0,0,1,31.3-38.575c37.31-37.31,90.428-66.083,167.894-93.907-19.919-6.324-42.685-12.964-68.928-19.92a27.99,27.99,0,0,1-20.552-26.876V3453.8a28.04,28.04,0,0,1,18.971-26.56c20.236-8.853,36.361-36.994,44.266-70.509a189.939,189.939,0,0,0,4.11-67.98c-2.846-21.185-9.8-40.788-21.817-55.965-14.228-18.022-36.677-29.721-69.56-29.721-32.567,0-55.332,11.7-69.561,29.721-12.015,15.177-18.971,34.78-21.816,55.965a189.944,189.944,0,0,0,4.11,67.98c8.221,34.464,24.979,62.921,45.531,71.142a27.3,27.3,0,0,1,17.706,25.927v34.464a27.8,27.8,0,0,1-22.133,27.192c-86.319,23.082-134.379,40.155-159.042,64.817-18.655,18.656-24.979,45.215-26.56,87.268Zm790.463-132.481c77.465,27.824,130.584,56.6,167.894,93.907a223.207,223.207,0,0,1,31.3,38.575H3705.1c-1.581-42.053-7.9-68.612-26.56-87.268-24.662-24.662-72.723-41.736-159.041-64.817a27.8,27.8,0,0,1-22.133-27.192V3453.8a27.3,27.3,0,0,1,17.706-25.927c20.552-8.221,37.31-36.677,45.531-71.142a189.5,189.5,0,0,0,4.11-67.98c-2.846-21.185-9.8-40.788-21.816-55.965-14.229-18.022-36.994-29.721-69.561-29.721-32.883,0-55.332,11.7-69.561,29.721-12.015,15.177-18.971,34.78-21.816,55.965a189.938,189.938,0,0,0,4.11,67.98c7.905,33.516,24.03,61.656,44.266,70.509a28.04,28.04,0,0,1,18.971,26.56v34.464a27.99,27.99,0,0,1-20.552,26.876C3402.506,3522.092,3379.741,3528.731,3359.821,3535.055Z" transform="translate(18899.625 -22108.836)" fill="#d92114"/>
    <path id="Path_2739" data-name="Path 2739" d="M945.8,902.3,589.642,766.615,260.176,946.8l37.2-338.757L0,389.151l379.156-73.682L524.837,0,721.975,293.212l387.4,23.925-257.322,254.9L945.8,902.3Z" transform="matrix(1, -0.001, 0.001, 1, 21408.59, -20452.445)" fill="#f1f9ff"/>
    <path id="Path_2750" data-name="Path 2750" d="M1010.271,942.6,629.833,800.853,277.91,989.084,317.642,635.2,0,406.53l405-76.973L560.611,0,771.186,306.307,1184.994,331.3,910.132,597.59,1010.27,942.6Z" transform="matrix(1, -0.001, 0.001, 1, 22235.139, -20452.303)" fill="#ffcf00"/>
    <path id="Path_2751" data-name="Path 2751" d="M79.672,486.88,339.394,675.235l-11.356,75.923C717.964,562.2,832.194,413.805,824.653,412.032L700.4,404.508,525.874,161.379,401.528,427.2,79.679,486.876h0Z" transform="translate(21410.141 -20548.041)" fill="rgba(255,255,255,0.61)"/>
  </g>
</svg>
